<svg width="63" height="89" viewBox="0 0 63 89" fill="none" xmlns="http://www.w3.org/2000/svg">
<path d="M59.9865 0.33667H3.0135C1.34919 0.33667 0 1.68414 0 3.34633V85.327C0 86.9892 1.34919 88.3367 3.0135 88.3367H59.9865C61.6508 88.3367 63 86.9892 63 85.327V3.34633C63 1.68414 61.6508 0.33667 59.9865 0.33667Z" fill="white"/>
<path d="M58.4395 5.13843H4.56049V83.5348H58.4395V5.13843Z" fill="#D11305" stroke="#D11305"/>
<path d="M57.2972 6.27881H5.70288V82.3948H57.2972V6.27881Z" stroke="#FFFBFB" stroke-width="0.444041"/>
<path d="M46.6027 17.0002H16.3972V71.6736H46.6027V17.0002Z" stroke="#FFFBFB" stroke-width="0.218214"/>
<path d="M17.0966 17.6907V70.983H45.9036V17.6907H17.0966ZM31.5003 18.6322C34.6526 18.6322 37.6757 19.8831 39.9047 22.1095C42.1337 24.336 43.3859 27.3557 43.3859 30.5044C43.3833 32.4331 42.9102 34.3322 42.0077 36.0374C43.8785 38.4001 44.8965 41.3242 44.8969 44.3366C44.8919 47.3457 43.8717 50.2653 42.001 52.6239C42.9078 54.3322 43.3832 56.2358 43.3859 58.1693C43.3859 61.318 42.1337 64.3377 39.9047 66.5642C37.6757 68.7906 34.6526 70.0415 31.5003 70.0415C29.9394 70.0415 28.3939 69.7345 26.9518 69.1379C25.5097 68.5413 24.1994 67.6667 23.0957 66.5643C21.9919 65.4619 21.1163 64.1532 20.519 62.7127C19.9216 61.2723 19.6142 59.7285 19.6142 58.1693C19.6169 56.2406 20.0899 54.3415 20.9924 52.6363C19.1215 50.2735 18.1035 47.3492 18.1032 44.3366C18.1084 41.3277 19.1286 38.4083 20.9992 36.0498C20.0923 34.3415 19.6169 32.4379 19.6142 30.5044C19.6142 28.9453 19.9216 27.4014 20.519 25.961C21.1163 24.5205 21.9919 23.2117 23.0957 22.1093C24.1994 21.0068 25.5097 20.1324 26.9518 19.5358C28.3939 18.9392 29.9394 18.6322 31.5003 18.6322V18.6322Z" stroke="#FFFBFB" stroke-width="0.218214"/>
<path d="M46.9385 16.3191H16.0615C15.8862 16.3191 15.7441 16.4611 15.7441 16.6361V72.0378C15.7441 72.2129 15.8862 72.3549 16.0615 72.3549H46.9385C47.1138 72.3549 47.2559 72.2129 47.2559 72.0378V16.6361C47.2559 16.4611 47.1138 16.3191 46.9385 16.3191Z" stroke="#FFFBFB" stroke-width="0.218214"/>
<path opacity="0.99" d="M20.9962 52.6208C19.1308 50.2616 18.1161 47.3431 18.1161 44.3369C18.1161 41.3332 19.1291 38.4169 20.9918 36.0586" stroke="#FFFBFB" stroke-width="0.448306"/>
<path opacity="0.99" d="M42.0035 36.053C43.869 38.4122 44.8838 41.3307 44.8838 44.3369V44.3369C44.8838 47.3407 43.8707 50.257 42.0079 52.6154" stroke="#FFFBFB" stroke-width="0.448306"/>
<path opacity="0.99" d="M21.3513 51.9957C19.6827 49.7902 18.7799 47.1014 18.7799 44.337C18.7799 41.5716 19.6835 38.8817 21.3534 36.6758" stroke="#FFFBFB" stroke-width="0.213259"/>
<path opacity="0.99" d="M41.6487 36.6787C43.3171 38.8841 44.2198 41.5728 44.2198 44.3369V44.3369C44.2199 47.102 43.3166 49.7916 41.6471 51.9974" stroke="#FFFBFB" stroke-width="0.213259"/>
<path opacity="0.99" d="M31.5001 46.2952C38.0664 46.2952 43.3894 51.6114 43.3894 58.1693C43.3894 64.7272 38.0664 70.0435 31.5001 70.0435C24.9338 70.0435 19.6108 64.7272 19.6108 58.1693C19.6108 51.6114 24.9338 46.2952 31.5001 46.2952Z" stroke="#FFFBFB" stroke-width="0.398249"/>
<path d="M31.5001 42.3787C24.9338 42.3787 19.6108 37.0624 19.6108 30.5045C19.6108 23.9466 24.9338 18.6304 31.5001 18.6304C38.0664 18.6304 43.3894 23.9466 43.3894 30.5045C43.3894 37.0624 38.0664 42.3787 31.5001 42.3787Z" stroke="white" stroke-width="0.398249"/>
</svg>
